<?xml version="1.0" encoding="UTF-8" standalone="no"?>
<svg
   xmlns:dc="http://purl.org/dc/elements/1.1/"
   xmlns:cc="http://creativecommons.org/ns#"
   xmlns:rdf="http://www.w3.org/1999/02/22-rdf-syntax-ns#"
   xmlns:svg="http://www.w3.org/2000/svg"
   xmlns="http://www.w3.org/2000/svg"
   xmlns:xlink="http://www.w3.org/1999/xlink"
   xmlns:sodipodi="http://sodipodi.sourceforge.net/DTD/sodipodi-0.dtd"
   xmlns:inkscape="http://www.inkscape.org/namespaces/inkscape"
   inkscape:version="1.0 (4035a4fb49, 2020-05-01)"
   sodipodi:docname="logo.svg"
   id="svg3"
   version="1.1"
   viewBox="0 0 1902 732"
   height="2.44in"
   width="6.34in">
  <metadata
     id="metadata9">
    <rdf:RDF>
      <cc:Work
         rdf:about="">
        <dc:format>image/svg+xml</dc:format>
        <dc:type
           rdf:resource="http://purl.org/dc/dcmitype/StillImage" />
        <dc:title></dc:title>
      </cc:Work>
    </rdf:RDF>
  </metadata>
  <defs
     id="defs7">
    <linearGradient
       id="linearGradient851"
       inkscape:collect="always">
      <stop
         id="stop847"
         offset="0"
         style="stop-color:#dc2877;stop-opacity:1" />
      <stop
         id="stop849"
         offset="1"
         style="stop-color:#3ce7f5;stop-opacity:1" />
    </linearGradient>
    <linearGradient
       gradientUnits="userSpaceOnUse"
       y2="-14.991132"
       x2="968.80194"
       y1="627.75366"
       x1="875.10736"
       id="linearGradient853"
       xlink:href="#linearGradient851"
       inkscape:collect="always" />
  </defs>
  <sodipodi:namedview
     inkscape:current-layer="svg3"
     inkscape:window-maximized="1"
     inkscape:window-y="211"
     inkscape:window-x="1254"
     inkscape:cy="117.12"
     inkscape:cx="180.79307"
     inkscape:zoom="1.6676524"
     showgrid="false"
     id="namedview5"
     inkscape:window-height="1057"
     inkscape:window-width="2498"
     inkscape:pageshadow="2"
     inkscape:pageopacity="0"
     guidetolerance="10"
     gridtolerance="10"
     objecttolerance="10"
     borderopacity="1"
     bordercolor="#666666"
     pagecolor="#ffffff" />
  <path
     style="mix-blend-mode:normal;fill:url(#linearGradient853);fill-opacity:1;stroke-width:0;stroke-miterlimit:4;stroke-dasharray:none;stroke:none"
     d="m 234.44,378.67 c 0,0 -82.24,0 -82.24,0 0,0 -26.93,151.33 -26.93,151.33 0,0 -124.39,0 -124.39,0 0,0 87.76,-497.52 87.76,-497.52 0,0 210.75,0 210.75,0 52.05,0 89.13,11.98 111.25,35.93 16.13,18.43 24.19,41.92 24.19,70.48 0,9.68 -0.92,19.81 -2.77,30.41 0,0 -13.81,78.08 -13.81,78.08 -6.92,38.24 -27.2,69.68 -60.83,94.32 -33.62,24.65 -74.62,36.97 -122.98,36.97 z m 21.42,-238.39 c 0,0 -62.19,0 -62.19,0 0,0 -22.81,130.6 -22.81,130.6 0,0 61.5,0 61.5,0 37.78,0 59.66,-16.82 65.66,-50.44 0,0 4.82,-28.35 4.82,-28.35 0.93,-4.14 1.39,-9.67 1.39,-16.57 0,-6.91 -3.46,-14.51 -10.37,-22.8 -6.91,-8.29 -19.57,-12.44 -38,-12.44 z m 546.72,301.27 c 10.59,0 20.03,-2.3 28.33,-6.91 0,0 -3.46,78.08 -3.46,78.08 -21.65,17.97 -46.29,26.95 -73.93,26.95 -62.65,0 -93.97,-26.25 -93.97,-78.76 0,-9.22 0.92,-19.13 2.76,-29.72 0,0 15.21,-85 15.21,-85 1.37,-8.29 2.06,-16.58 2.06,-24.88 0,-22.1 -11.63,-33.15 -34.89,-33.15 -23.26,0 -41.35,7.82 -54.25,23.48 0,0 -38.69,218.36 -38.69,218.36 0,0 -117.47,0 -117.47,0 0,0 92.6,-524.47 92.6,-524.47 0,0 117.46,0 117.46,0 0,0 -39.39,223.19 -39.39,223.19 25.34,-27.18 57.12,-40.77 95.36,-40.77 46.53,0 76.71,10.37 90.52,31.1 9.67,13.82 14.51,29.25 14.51,46.29 0,17.05 -1.38,32.71 -4.14,46.99 0,0 -18.65,102.97 -18.65,102.97 -0.47,2.76 -0.71,5.29 -0.71,7.59 0,12.44 6.91,18.66 20.74,18.66 z m 215.17,0 c 10.59,0 20.04,-2.3 28.33,-6.91 0,0 -3.46,78.08 -3.46,78.08 -21.64,17.97 -46.29,26.95 -73.93,26.95 -41.92,0 -69.1,-9.67 -81.53,-29.01 -8.3,-12.91 -12.44,-26.62 -12.44,-41.13 0,-14.51 0.92,-27.29 2.76,-38.34 0,0 41.46,-233.57 41.46,-233.57 0,0 117.47,0 117.47,0 0,0 -38.69,217.68 -38.69,217.68 -0.47,2.76 -0.7,5.29 -0.7,7.59 0,12.44 6.91,18.66 20.73,18.66 z M 932.77,85 c 0,-29.49 6.56,-51.02 19.68,-64.61 C 965.58,6.8 985.96,0 1013.61,0 c 38.69,0 58.05,17.05 58.05,51.14 0,29.02 -6.57,50.22 -19.71,63.58 -13.12,13.35 -33.74,20.03 -61.84,20.03 -38.23,0 -57.34,-16.58 -57.34,-49.75 z m 283.71,338.59 c 0,11.97 6.1,17.96 18.3,17.96 12.21,0 22.46,-2.3 30.75,-6.91 0,0 -3.45,78.08 -3.45,78.08 -22.11,17.97 -46.98,26.95 -74.63,26.95 -41.91,0 -69.09,-9.67 -81.53,-29.01 -7.83,-12.44 -11.75,-26.03 -11.75,-40.77 0,-14.75 0.92,-27.65 2.77,-38.7 0,0 75.31,-425.66 75.31,-425.66 0,0 117.47,0 117.47,0 0,0 -72.55,409.77 -72.55,409.77 -0.46,2.76 -0.69,5.52 -0.69,8.29 z m 220,0 c 0,11.97 6.1,17.96 18.3,17.96 12.21,0 22.46,-2.3 30.75,-6.91 0,0 -3.45,78.08 -3.45,78.08 -22.11,17.97 -46.98,26.95 -74.63,26.95 -41.91,0 -69.09,-9.67 -81.53,-29.01 -7.83,-12.44 -11.75,-26.03 -11.75,-40.77 0,-14.75 0.92,-27.65 2.77,-38.7 0,0 75.31,-425.66 75.31,-425.66 0,0 117.47,0 117.47,0 0,0 -72.55,409.77 -72.55,409.77 -0.46,2.76 -0.69,5.52 -0.69,8.29 z m 223.46,-42.15 c -1.39,8.29 -2.08,16.58 -2.08,24.87 0,22.12 12.44,33.17 37.31,33.17 20.27,0 37.08,-7.14 50.44,-21.42 0,0 38.7,-220.44 38.7,-220.44 0,0 117.47,0 117.47,0 0,0 -60.81,343.44 -60.81,343.44 -10.14,58.5 -33.29,104.79 -69.45,138.88 -36.16,34.09 -77.5,51.14 -124.04,51.14 -46.52,0 -80.03,-8.53 -100.53,-25.56 -20.5,-17.05 -30.75,-39.39 -30.75,-67.04 0,-39.15 24.19,-73.93 72.57,-104.34 -26.27,-6.44 -42.85,-19.57 -49.75,-39.37 -4.16,-11.07 -6.24,-23.5 -6.24,-37.32 0,-13.82 1.16,-27.87 3.47,-42.15 0,0 38.69,-217.68 38.69,-217.68 0,0 117.47,0 117.47,0 0,0 -32.47,183.82 -32.47,183.82 z m 3.45,250.83 c 29.94,0 49.52,-27.18 58.73,-81.54 0,0 6.91,-40.07 6.91,-40.07 -64.03,29.93 -96.05,60.11 -96.05,90.51 0,9.22 2.65,16.71 7.94,22.45 5.3,5.76 12.79,8.65 22.47,8.65 z"
     stroke-width="1"
     stroke="#000000"
     fill="none"
     id="Pfad" />
</svg>
